<?xml version="1.0" encoding="UTF-8" standalone="no"?>
<svg xmlns="http://www.w3.org/2000/svg" width="1100" height="850" viewBox="0 0 1100 850" role="img" aria-labelledby="title desc">
  <title id="title">SBXX Worksheet, Master Your Tasks: Prioritization and Time Management</title>
  <desc id="desc">Landscape worksheet on a white background with large title, introduction, fillable sections built around the SEQUENCE action model, and a three step summary footer.</desc>

  <defs>
    <style>
      .bg { fill: #ffffff; }
      .line { stroke: #111111; stroke-width: 2; fill: none; }
      .soft { stroke: #777777; stroke-width: 1.2; fill: none; }
      .box { fill: #ffffff; stroke: #111111; stroke-width: 2; rx: 18; ry: 18; }
      .mini { fill: #ffffff; stroke: #111111; stroke-width: 1.5; rx: 12; ry: 12; }
      .label { font-family: Arial, Helvetica, sans-serif; font-size: 13px; font-weight: 700; fill: #111111; }
      .small { font-family: Arial, Helvetica, sans-serif; font-size: 11px; fill: #111111; }
      .tiny { font-family: Arial, Helvetica, sans-serif; font-size: 9px; fill: #111111; }
      .title { font-family: Arial, Helvetica, sans-serif; font-size: 28px; font-weight: 700; fill: #111111; }
      .sub { font-family: Arial, Helvetica, sans-serif; font-size: 16px; font-weight: 700; fill: #111111; }
      .verb { font-family: Arial, Helvetica, sans-serif; font-size: 30px; font-weight: 700; fill: #111111; letter-spacing: 2px; }
      .letter { font-family: Arial, Helvetica, sans-serif; font-size: 34px; font-weight: 700; fill: #111111; }
      .num { font-family: Arial, Helvetica, sans-serif; font-size: 24px; font-weight: 700; fill: #111111; }
      .fillline { stroke: #9a9a9a; stroke-width: 1; }
      .dot { fill: #111111; }
    </style>
  </defs>

  <rect class="bg" x="0" y="0" width="1100" height="850"/>

  <rect x="40" y="26" width="40" height="14" fill="#d0d0d0"/>
  <text class="title" x="40" y="70">MASTER YOUR TASKS</text>
  <text class="sub" x="40" y="96">Prioritization and Time Management</text>

  <rect class="mini" x="700" y="34" width="360" height="78"/>
  <rect x="720" y="50" width="140" height="14" fill="#d4d4d4"/>
  <rect x="720" y="70" width="280" height="14" fill="#cccccc"/>
  <rect x="720" y="86" width="220" height="14" fill="#e0e0e0"/>

  <rect x="444" y="134" width="180" height="16" fill="#d8d8d8"/>
  <line class="line" x1="40" y1="154" x2="1060" y2="154"/>

  <rect class="box" x="40" y="180" width="240" height="150"/>
  <text class="letter" x="60" y="222">S</text>
  <rect x="105" y="196" width="130" height="14" fill="#d0d0d0"/>
  <rect x="105" y="216" width="220" height="14" fill="#c8c8c8"/>
  <rect x="105" y="234" width="190" height="14" fill="#e2e2e2"/>
  <line x1="60" y1="270" x2="260" y2="270" stroke="#d4d4d4" stroke-width="1"/>
  <line x1="60" y1="300" x2="260" y2="300" stroke="#cccccc" stroke-width="1"/>
  <line x1="60" y1="330" x2="260" y2="330" stroke="#d8d8d8" stroke-width="1"/>

  <rect class="box" x="300" y="180" width="240" height="150"/>
  <text class="letter" x="320" y="222">E</text>
  <rect x="365" y="196" width="140" height="14" fill="#d0d0d0"/>
  <rect x="365" y="216" width="230" height="14" fill="#c8c8c8"/>
  <rect x="365" y="234" width="180" height="14" fill="#e2e2e2"/>
  <line x1="320" y1="270" x2="520" y2="270" stroke="#d4d4d4" stroke-width="1"/>
  <line x1="320" y1="300" x2="520" y2="300" stroke="#cccccc" stroke-width="1"/>
  <line x1="320" y1="330" x2="520" y2="330" stroke="#d8d8d8" stroke-width="1"/>

  <rect class="box" x="560" y="180" width="240" height="150"/>
  <text class="letter" x="580" y="222">Q</text>
  <rect x="625" y="196" width="140" height="14" fill="#d0d0d0"/>
  <rect x="625" y="216" width="210" height="14" fill="#c8c8c8"/>
  <rect x="625" y="234" width="200" height="14" fill="#e2e2e2"/>
  <rect x="580" y="260" width="15" height="14" fill="#d4d4d4"/><line x1="600" y1="268" x2="780" y2="268" stroke="#cccccc" stroke-width="1"/>
  <rect x="580" y="284" width="15" height="14" fill="#d4d4d4"/><line x1="600" y1="292" x2="780" y2="292" stroke="#d8d8d8" stroke-width="1"/>
  <rect x="580" y="308" width="15" height="14" fill="#d4d4d4"/><line x1="600" y1="316" x2="780" y2="316" stroke="#d0d0d0" stroke-width="1"/>
  <rect x="580" y="332" width="15" height="14" fill="#d4d4d4"/><line x1="600" y1="340" x2="780" y2="340" stroke="#cfcfcf" stroke-width="1"/>

  <rect class="box" x="820" y="180" width="240" height="150"/>
  <text class="letter" x="840" y="222">U</text>
  <rect x="885" y="196" width="130" height="14" fill="#d0d0d0"/>
  <rect x="885" y="216" width="200" height="14" fill="#c8c8c8"/>
  <rect x="885" y="234" width="190" height="14" fill="#e2e2e2"/>
  <rect x="840" y="260" width="15" height="14" fill="#d4d4d4"/><line x1="860" y1="268" x2="1040" y2="268" stroke="#cccccc" stroke-width="1"/>
  <rect x="840" y="284" width="15" height="14" fill="#d4d4d4"/><line x1="860" y1="292" x2="1040" y2="292" stroke="#d8d8d8" stroke-width="1"/>
  <rect x="840" y="308" width="15" height="14" fill="#d4d4d4"/><line x1="860" y1="316" x2="1040" y2="316" stroke="#d0d0d0" stroke-width="1"/>

  <rect class="box" x="40" y="350" width="240" height="150"/>
  <text class="letter" x="60" y="392">E</text>
  <rect x="105" y="366" width="150" height="14" fill="#d0d0d0"/>
  <rect x="105" y="386" width="230" height="14" fill="#c8c8c8"/>
  <rect x="105" y="404" width="190" height="14" fill="#e2e2e2"/>
  <rect x="60" y="432" width="55" height="14" fill="#d4d4d4"/><line x1="125" y1="440" x2="260" y2="440" stroke="#cccccc" stroke-width="1"/>
  <rect x="60" y="456" width="55" height="14" fill="#d4d4d4"/><line x1="125" y1="464" x2="260" y2="464" stroke="#d8d8d8" stroke-width="1"/>
  <rect x="60" y="480" width="55" height="14" fill="#d4d4d4"/><line x1="125" y1="488" x2="260" y2="488" stroke="#d0d0d0" stroke-width="1"/>

  <rect class="box" x="300" y="350" width="240" height="150"/>
  <text class="letter" x="320" y="392">N</text>
  <rect x="365" y="366" width="140" height="14" fill="#d0d0d0"/>
  <rect x="365" y="386" width="220" height="14" fill="#c8c8c8"/>
  <rect x="365" y="404" width="200" height="14" fill="#e2e2e2"/>
  <line x1="320" y1="440" x2="520" y2="440" stroke="#d4d4d4" stroke-width="1"/>
  <line x1="320" y1="464" x2="520" y2="464" stroke="#cccccc" stroke-width="1"/>
  <line x1="320" y1="488" x2="520" y2="488" stroke="#d8d8d8" stroke-width="1"/>

  <rect class="box" x="560" y="350" width="240" height="150"/>
  <text class="letter" x="580" y="392">C</text>
  <rect x="625" y="366" width="120" height="14" fill="#d0d0d0"/>
  <rect x="625" y="386" width="220" height="14" fill="#c8c8c8"/>
  <rect x="625" y="404" width="230" height="14" fill="#e2e2e2"/>
  <line x1="580" y1="440" x2="780" y2="440" stroke="#d4d4d4" stroke-width="1"/>
  <line x1="580" y1="464" x2="780" y2="464" stroke="#cccccc" stroke-width="1"/>
  <line x1="580" y1="488" x2="780" y2="488" stroke="#d8d8d8" stroke-width="1"/>

  <rect class="box" x="820" y="350" width="240" height="150"/>
  <text class="letter" x="840" y="392">E</text>
  <rect x="885" y="366" width="180" height="14" fill="#d0d0d0"/>
  <rect x="885" y="386" width="240" height="14" fill="#c8c8c8"/>
  <rect x="885" y="404" width="200" height="14" fill="#e2e2e2"/>
  <line x1="840" y1="440" x2="1040" y2="440" stroke="#d4d4d4" stroke-width="1"/>
  <line x1="840" y1="464" x2="1040" y2="464" stroke="#cccccc" stroke-width="1"/>
  <line x1="840" y1="488" x2="1040" y2="488" stroke="#d8d8d8" stroke-width="1"/>

  <rect class="mini" x="40" y="530" width="1020" height="80"/>
  <rect x="60" y="548" width="200" height="14" fill="#d0d0d0"/>
  <rect x="60" y="572" width="450" height="14" fill="#c8c8c8"/>
  <line x1="60" y1="604" x2="1030" y2="604" stroke="#d4d4d4" stroke-width="1"/>

  <rect class="mini" x="40" y="630" width="315" height="82"/>
  <text class="num" x="60" y="665">1</text>
  <rect x="95" y="645" width="140" height="14" fill="#d0d0d0"/>
  <rect x="95" y="665" width="220" height="14" fill="#c8c8c8"/>
  <rect x="95" y="681" width="180" height="14" fill="#e2e2e2"/>

  <rect class="mini" x="392" y="630" width="315" height="82"/>
  <text class="num" x="412" y="665">2</text>
  <rect x="447" y="645" width="130" height="14" fill="#d0d0d0"/>
  <rect x="447" y="665" width="210" height="14" fill="#c8c8c8"/>
  <rect x="447" y="681" width="200" height="14" fill="#e2e2e2"/>

  <rect class="mini" x="745" y="630" width="315" height="82"/>
  <text class="num" x="765" y="665">3</text>
  <rect x="800" y="645" width="190" height="14" fill="#d0d0d0"/>
  <rect x="800" y="665" width="220" height="14" fill="#c8c8c8"/>
  <rect x="800" y="681" width="180" height="14" fill="#e2e2e2"/>
</svg>