<?xml version="1.0" encoding="UTF-8" standalone="no"?>
<svg xmlns="http://www.w3.org/2000/svg" width="1100" height="850" viewBox="0 0 1100 850" role="img"
    aria-labelledby="title desc">
    <title id="title">SB30 Censored Grayscale Worksheet Preview</title>
    <desc id="desc">Landscape worksheet preview on a white background with the original title,
        CEMENT model word, model letters, step numbers, structural boxes, connector lines, and
        grayscale censor blocks replacing instructional text.</desc>

    <defs>
        <style>
      .bg { fill: #ffffff; }
      .line { stroke: #111111; stroke-width: 2; fill: none; }
      .soft { stroke: #777777; stroke-width: 1.2; fill: none; }
      .box { fill: #ffffff; stroke: #111111; stroke-width: 2; rx: 18; ry: 18; }
      .mini { fill: #ffffff; stroke: #111111; stroke-width: 1.5; rx: 12; ry: 12; }
      .label { font-family: Arial, Helvetica, sans-serif; font-size: 13px; font-weight: 700; fill:
      #111111; }
      .small { font-family: Arial, Helvetica, sans-serif; font-size: 11px; fill: #111111; }
      .tiny { font-family: Arial, Helvetica, sans-serif; font-size: 9px; fill: #111111; }
      .title { font-family: Arial, Helvetica, sans-serif; font-size: 28px; font-weight: 700; fill:
      #111111; }
      .sub { font-family: Arial, Helvetica, sans-serif; font-size: 16px; font-weight: 700; fill:
      #111111; }
      .verb { font-family: Arial, Helvetica, sans-serif; font-size: 30px; font-weight: 700; fill:
      #111111; letter-spacing: 2px; }
      .letter { font-family: Arial, Helvetica, sans-serif; font-size: 34px; font-weight: 700; fill:
      #111111; }
      .num { font-family: Arial, Helvetica, sans-serif; font-size: 24px; font-weight: 700; fill:
      #111111; }
      .fillline { stroke: #9a9a9a; stroke-width: 1; }
      .dot { fill: #111111; }
      .c1 { fill: #eeeeee; rx: 3; ry: 3; }
      .c2 { fill: #e2e2e2; rx: 3; ry: 3; }
      .c3 { fill: #d4d4d4; rx: 3; ry: 3; }
      .c4 { fill: #c7c7c7; rx: 3; ry: 3; }
      .c5 { fill: #b8b8b8; rx: 3; ry: 3; }
      .c6 { fill: #a9a9a9; rx: 3; ry: 3; }
    </style>
    </defs>

    <rect class="bg" x="0" y="0" width="1100" height="850" />

    <!-- Header -->
    <rect class="c5" x="45" y="27" width="230" height="12" />
    <text class="title" x="45" y="76">LOCK IN THE THREE CHANGES THAT MATTER MOST</text>
    <rect class="c2" x="45" y="91" width="610" height="11" />

    <rect class="mini" x="825" y="28" width="230" height="76" />
    <rect class="c5" x="842" y="42" width="88" height="11" />
    <rect class="c2" x="842" y="61" width="177" height="8" />
    <rect class="c3" x="842" y="75" width="190" height="8" />
    <rect class="c2" x="842" y="89" width="168" height="8" />

    <!-- Process band -->
    <rect class="box" x="45" y="122" width="1010" height="62" />
    <text class="verb" x="74" y="163">CEMENT</text>
    <line class="soft" x1="246" y1="136" x2="246" y2="170" />
    <rect class="c3" x="266" y="139" width="390" height="10" />
    <rect class="c2" x="266" y="156" width="365" height="10" />

    <!-- Connector line -->
    <line class="soft" x1="90" y1="207" x2="1010" y2="207" />
    <circle class="dot" cx="90" cy="207" r="4" />
    <circle class="dot" cx="274" cy="207" r="4" />
    <circle class="dot" cx="458" cy="207" r="4" />
    <circle class="dot" cx="642" cy="207" r="4" />
    <circle class="dot" cx="826" cy="207" r="4" />
    <circle class="dot" cx="1010" cy="207" r="4" />

    <!-- C -->
    <rect class="box" x="45" y="225" width="320" height="202" />
    <text class="letter" x="63" y="264">C</text>
    <rect class="c6" x="104" y="241" width="192" height="15" />
    <rect class="c2" x="104" y="263" width="176" height="8" />

    <rect class="c5" x="64" y="285" width="150" height="11" />
    <line class="fillline" x1="64" y1="312" x2="346" y2="312" />
    <line class="fillline" x1="64" y1="331" x2="346" y2="331" />

    <rect class="c4" x="64" y="345" width="108" height="11" />
    <line class="fillline" x1="64" y1="372" x2="346" y2="372" />

    <rect class="c5" x="64" y="385" width="174" height="11" />
    <line class="fillline" x1="64" y1="412" x2="346" y2="412" />

    <!-- E1 -->
    <rect class="box" x="390" y="225" width="320" height="202" />
    <text class="letter" x="408" y="264">E</text>
    <rect class="c6" x="449" y="241" width="194" height="15" />
    <rect class="c2" x="449" y="263" width="146" height="8" />

    <rect class="c5" x="409" y="286" width="42" height="10" />
    <rect class="c5" x="550" y="286" width="38" height="10" />
    <rect class="c5" x="604" y="286" width="36" height="10" />
    <rect class="c5" x="654" y="286" width="39" height="10" />

    <line class="fillline" x1="409" y1="315" x2="534" y2="315" />
    <rect class="mini" x="551" y="303" width="36" height="22" />
    <rect class="mini" x="605" y="303" width="36" height="22" />
    <rect class="mini" x="657" y="303" width="36" height="22" />

    <line class="fillline" x1="409" y1="349" x2="534" y2="349" />
    <rect class="mini" x="551" y="337" width="36" height="22" />
    <rect class="mini" x="605" y="337" width="36" height="22" />
    <rect class="mini" x="657" y="337" width="36" height="22" />

    <line class="fillline" x1="409" y1="383" x2="534" y2="383" />
    <rect class="mini" x="551" y="371" width="36" height="22" />
    <rect class="mini" x="605" y="371" width="36" height="22" />
    <rect class="mini" x="657" y="371" width="36" height="22" />

    <rect class="c2" x="409" y="405" width="242" height="8" />

    <!-- M -->
    <rect class="box" x="735" y="225" width="320" height="202" />
    <text class="letter" x="753" y="264">M</text>
    <rect class="c6" x="798" y="241" width="178" height="15" />
    <rect class="c2" x="798" y="263" width="196" height="8" />

    <circle class="line" cx="776" cy="310" r="15" />
    <text class="num" x="769" y="318">1</text>
    <line class="fillline" x1="803" y1="310" x2="1036" y2="310" />
    <rect class="c3" x="803" y="319" width="57" height="8" />
    <line class="fillline" x1="865" y1="325" x2="1036" y2="325" />

    <circle class="line" cx="776" cy="355" r="15" />
    <text class="num" x="769" y="363">2</text>
    <line class="fillline" x1="803" y1="355" x2="1036" y2="355" />
    <rect class="c3" x="803" y="364" width="57" height="8" />
    <line class="fillline" x1="865" y1="370" x2="1036" y2="370" />

    <circle class="line" cx="776" cy="400" r="15" />
    <text class="num" x="769" y="408">3</text>
    <line class="fillline" x1="803" y1="400" x2="1036" y2="400" />
    <rect class="c3" x="803" y="409" width="57" height="8" />
    <line class="fillline" x1="865" y1="415" x2="1036" y2="415" />

    <!-- E2 -->
    <rect class="box" x="45" y="448" width="320" height="238" />
    <text class="letter" x="63" y="487">E</text>
    <rect class="c6" x="104" y="464" width="188" height="15" />
    <rect class="c2" x="104" y="486" width="185" height="8" />

    <rect class="c5" x="64" y="511" width="48" height="11" />
    <rect class="c3" x="64" y="531" width="31" height="8" />
    <line class="fillline" x1="97" y1="538" x2="346" y2="538" />
    <rect class="c3" x="64" y="548" width="30" height="8" />
    <line class="fillline" x1="96" y1="555" x2="346" y2="555" />

    <rect class="c5" x="64" y="571" width="48" height="11" />
    <rect class="c3" x="64" y="591" width="31" height="8" />
    <line class="fillline" x1="97" y1="598" x2="346" y2="598" />
    <rect class="c3" x="64" y="608" width="30" height="8" />
    <line class="fillline" x1="96" y1="615" x2="346" y2="615" />

    <rect class="c5" x="64" y="631" width="48" height="11" />
    <rect class="c3" x="64" y="651" width="31" height="8" />
    <line class="fillline" x1="97" y1="658" x2="346" y2="658" />
    <rect class="c3" x="64" y="668" width="30" height="8" />
    <line class="fillline" x1="96" y1="675" x2="346" y2="675" />

    <!-- N -->
    <rect class="box" x="390" y="448" width="320" height="238" />
    <text class="letter" x="408" y="487">N</text>
    <rect class="c6" x="449" y="464" width="168" height="15" />
    <rect class="c2" x="449" y="486" width="225" height="8" />

    <rect class="c5" x="409" y="512" width="112" height="11" />
    <line class="fillline" x1="409" y1="540" x2="692" y2="540" />
    <rect class="c3" x="409" y="549" width="38" height="8" />
    <line class="fillline" x1="450" y1="556" x2="692" y2="556" />

    <rect class="c5" x="409" y="572" width="112" height="11" />
    <line class="fillline" x1="409" y1="600" x2="692" y2="600" />
    <rect class="c3" x="409" y="609" width="38" height="8" />
    <line class="fillline" x1="450" y1="616" x2="692" y2="616" />

    <rect class="c5" x="409" y="632" width="112" height="11" />
    <line class="fillline" x1="409" y1="660" x2="692" y2="660" />
    <rect class="c3" x="409" y="669" width="38" height="8" />
    <line class="fillline" x1="450" y1="676" x2="692" y2="676" />

    <!-- T -->
    <rect class="box" x="735" y="448" width="320" height="238" />
    <text class="letter" x="753" y="487">T</text>
    <rect class="c6" x="794" y="464" width="205" height="15" />
    <rect class="c2" x="794" y="486" width="162" height="8" />

    <rect class="c5" x="754" y="510" width="60" height="11" />
    <line class="fillline" x1="818" y1="520" x2="1036" y2="520" />
    <rect class="c3" x="754" y="531" width="58" height="8" />
    <line class="fillline" x1="815" y1="538" x2="878" y2="538" />
    <rect class="c3" x="893" y="531" width="44" height="8" />
    <line class="fillline" x1="940" y1="538" x2="1036" y2="538" />

    <rect class="c5" x="754" y="555" width="60" height="11" />
    <line class="fillline" x1="818" y1="565" x2="1036" y2="565" />
    <rect class="c3" x="754" y="576" width="58" height="8" />
    <line class="fillline" x1="815" y1="583" x2="878" y2="583" />
    <rect class="c3" x="893" y="576" width="44" height="8" />
    <line class="fillline" x1="940" y1="583" x2="1036" y2="583" />

    <rect class="c5" x="754" y="600" width="60" height="11" />
    <line class="fillline" x1="818" y1="610" x2="1036" y2="610" />
    <rect class="c3" x="754" y="621" width="58" height="8" />
    <line class="fillline" x1="815" y1="628" x2="878" y2="628" />
    <rect class="c3" x="893" y="621" width="44" height="8" />
    <line class="fillline" x1="940" y1="628" x2="1036" y2="628" />

    <rect class="c5" x="754" y="648" width="76" height="11" />
    <line class="fillline" x1="837" y1="658" x2="925" y2="658" />
    <rect class="c5" x="939" y="648" width="88" height="11" />
    <line class="fillline" x1="939" y1="676" x2="1036" y2="676" />

    <!-- Footer summary -->
    <rect class="box" x="45" y="706" width="1010" height="104" />

    <circle class="line" cx="82" cy="752" r="22" />
    <text class="num" x="75" y="760">1</text>
    <rect class="c6" x="118" y="728" width="140" height="12" />
    <rect class="c2" x="118" y="749" width="214" height="8" />
    <rect class="c3" x="118" y="763" width="186" height="8" />

    <line class="soft" x1="360" y1="724" x2="360" y2="792" />

    <circle class="line" cx="407" cy="752" r="22" />
    <text class="num" x="400" y="760">2</text>
    <rect class="c6" x="443" y="728" width="124" height="12" />
    <rect class="c2" x="443" y="749" width="214" height="8" />
    <rect class="c3" x="443" y="763" width="174" height="8" />

    <line class="soft" x1="705" y1="724" x2="705" y2="792" />

    <circle class="line" cx="752" cy="752" r="22" />
    <text class="num" x="745" y="760">3</text>
    <rect class="c6" x="788" y="728" width="158" height="12" />
    <rect class="c2" x="788" y="749" width="220" height="8" />
    <rect class="c3" x="788" y="763" width="198" height="8" />

    <rect class="c2" x="45" y="826" width="496" height="8" />
    <rect class="c4" x="1000" y="826" width="34" height="8" />
</svg>