<?xml version="1.0" encoding="UTF-8" standalone="no"?>
<svg xmlns="http://www.w3.org/2000/svg" width="1100" height="850" viewBox="0 0 1100 850" role="img"
    aria-labelledby="title desc">
    <title id="title">SB29 Censored Worksheet Preview</title>
    <desc id="desc">Landscape grayscale preview of the SB29 worksheet with the title, BALANCE model,
        model letters, and step numbers visible while all other instructional content is replaced by
        censor blocks.</desc>

    <defs>
        <style>
      .bg { fill: #ffffff; }
      .line { stroke: #111111; stroke-width: 2; fill: none; }
      .soft { stroke: #777777; stroke-width: 1.2; fill: none; }
      .box { fill: #ffffff; stroke: #111111; stroke-width: 2; rx: 18; ry: 18; }
      .mini { fill: #ffffff; stroke: #111111; stroke-width: 1.5; rx: 12; ry: 12; }
      .label { font-family: Arial, Helvetica, sans-serif; font-size: 13px; font-weight: 700; fill:
      #111111; }
      .small { font-family: Arial, Helvetica, sans-serif; font-size: 11px; fill: #111111; }
      .tiny { font-family: Arial, Helvetica, sans-serif; font-size: 9px; fill: #111111; }
      .title { font-family: Arial, Helvetica, sans-serif; font-size: 28px; font-weight: 700; fill:
      #111111; }
      .sub { font-family: Arial, Helvetica, sans-serif; font-size: 16px; font-weight: 700; fill:
      #111111; }
      .verb { font-family: Arial, Helvetica, sans-serif; font-size: 30px; font-weight: 700; fill:
      #111111; letter-spacing: 2px; }
      .letter { font-family: Arial, Helvetica, sans-serif; font-size: 34px; font-weight: 700; fill:
      #111111; }
      .num { font-family: Arial, Helvetica, sans-serif; font-size: 24px; font-weight: 700; fill:
      #111111; }
      .fillline { stroke: #9a9a9a; stroke-width: 1; }
      .dot { fill: #111111; }
      .c1 { fill: #eeeeee; rx: 3; ry: 3; }
      .c2 { fill: #e2e2e2; rx: 3; ry: 3; }
      .c3 { fill: #d4d4d4; rx: 3; ry: 3; }
      .c4 { fill: #c7c7c7; rx: 3; ry: 3; }
      .c5 { fill: #b8b8b8; rx: 3; ry: 3; }
      .c6 { fill: #a9a9a9; rx: 3; ry: 3; }
    </style>
    </defs>

    <rect class="bg" x="0" y="0" width="1100" height="850" />

    <rect class="c5" x="52" y="31" width="184" height="13" />
    <text class="title" x="52" y="78">STOP LETTING ONE ROLE STEAL YOUR LIFE</text>
    <rect class="c2" x="52" y="91" width="828" height="11" />

    <rect class="mini" x="52" y="120" width="996" height="74" />
    <rect class="c6" x="72" y="134" width="112" height="16" />
    <rect class="c2" x="72" y="157" width="820" height="10" />
    <rect class="c2" x="72" y="174" width="754" height="10" />

    <text class="verb" x="451" y="226">BALANCE</text>
    <line class="line" x1="80" y1="238" x2="1020" y2="238" />

    <rect class="box" x="52" y="258" width="242" height="205" />
    <text class="letter" x="72" y="296">B</text>
    <rect class="c6" x="112" y="277" width="126" height="17" />
    <rect class="c2" x="72" y="307" width="180" height="10" />
    <rect class="c1" x="72" y="325" width="194" height="8" />
    <rect class="c5" x="72" y="345" width="76" height="13" />
    <line class="fillline" x1="72" y1="374" x2="274" y2="374" />
    <line class="fillline" x1="72" y1="394" x2="274" y2="394" />
    <line class="fillline" x1="72" y1="414" x2="274" y2="414" />
    <line class="fillline" x1="72" y1="434" x2="274" y2="434" />

    <rect class="box" x="314" y="258" width="242" height="205" />
    <text class="letter" x="334" y="296">A</text>
    <rect class="c6" x="374" y="277" width="86" height="17" />
    <rect class="c2" x="334" y="307" width="170" height="10" />
    <rect class="c1" x="334" y="325" width="188" height="8" />
    <rect class="c5" x="334" y="345" width="156" height="13" />
    <line class="fillline" x1="334" y1="374" x2="536" y2="374" />
    <line class="fillline" x1="334" y1="394" x2="536" y2="394" />
    <line class="fillline" x1="334" y1="414" x2="536" y2="414" />
    <line class="fillline" x1="334" y1="434" x2="536" y2="434" />

    <rect class="box" x="576" y="258" width="242" height="205" />
    <text class="letter" x="596" y="296">L</text>
    <rect class="c6" x="636" y="277" width="88" height="17" />
    <rect class="c2" x="596" y="307" width="184" height="10" />
    <rect class="c1" x="596" y="325" width="184" height="8" />
    <rect class="c5" x="596" y="345" width="118" height="13" />
    <line class="fillline" x1="596" y1="374" x2="798" y2="374" />
    <rect class="c5" x="596" y="387" width="132" height="13" />
    <line class="fillline" x1="596" y1="416" x2="798" y2="416" />
    <line class="fillline" x1="596" y1="436" x2="798" y2="436" />

    <rect class="box" x="838" y="258" width="210" height="205" />
    <text class="letter" x="858" y="296">A</text>
    <rect class="c6" x="898" y="277" width="72" height="17" />
    <rect class="c2" x="858" y="307" width="156" height="10" />
    <rect class="c1" x="858" y="325" width="164" height="8" />
    <rect class="c5" x="858" y="345" width="114" height="13" />
    <line class="fillline" x1="858" y1="374" x2="1028" y2="374" />
    <rect class="c5" x="858" y="387" width="132" height="13" />
    <line class="fillline" x1="858" y1="416" x2="1028" y2="416" />
    <line class="fillline" x1="858" y1="436" x2="1028" y2="436" />

    <line class="soft" x1="294" y1="360" x2="314" y2="360" />
    <circle class="dot" cx="304" cy="360" r="3" />
    <line class="soft" x1="556" y1="360" x2="576" y2="360" />
    <circle class="dot" cx="566" cy="360" r="3" />
    <line class="soft" x1="818" y1="360" x2="838" y2="360" />
    <circle class="dot" cx="828" cy="360" r="3" />

    <rect class="box" x="52" y="485" width="314" height="190" />
    <text class="letter" x="72" y="523">N</text>
    <rect class="c6" x="112" y="504" width="176" height="17" />
    <rect class="c2" x="72" y="534" width="248" height="10" />
    <rect class="c1" x="72" y="552" width="258" height="8" />
    <rect class="c5" x="72" y="573" width="106" height="13" />
    <line class="fillline" x1="72" y1="602" x2="346" y2="602" />
    <line class="fillline" x1="72" y1="622" x2="346" y2="622" />
    <rect class="c5" x="72" y="635" width="128" height="13" />
    <line class="fillline" x1="210" y1="646" x2="346" y2="646" />

    <rect class="box" x="393" y="485" width="314" height="190" />
    <text class="letter" x="413" y="523">C</text>
    <rect class="c6" x="453" y="504" width="226" height="17" />
    <rect class="c2" x="413" y="534" width="254" height="10" />
    <rect class="c5" x="413" y="555" width="196" height="13" />
    <line class="fillline" x1="413" y1="584" x2="687" y2="584" />
    <line class="fillline" x1="413" y1="604" x2="687" y2="604" />
    <rect class="c5" x="413" y="617" width="220" height="13" />
    <line class="fillline" x1="413" y1="646" x2="687" y2="646" />

    <rect class="box" x="734" y="485" width="314" height="190" />
    <text class="letter" x="754" y="523">E</text>
    <rect class="c6" x="794" y="504" width="188" height="17" />
    <rect class="c2" x="754" y="534" width="242" height="10" />
    <rect class="c5" x="754" y="555" width="184" height="13" />
    <line class="fillline" x1="754" y1="584" x2="1028" y2="584" />
    <line class="fillline" x1="754" y1="604" x2="1028" y2="604" />
    <rect class="c5" x="754" y="617" width="172" height="13" />
    <line class="fillline" x1="754" y1="646" x2="1028" y2="646" />

    <line class="soft" x1="943" y1="463" x2="943" y2="476" />
    <line class="soft" x1="943" y1="476" x2="209" y2="476" />
    <line class="soft" x1="209" y1="476" x2="209" y2="485" />
    <circle class="dot" cx="943" cy="476" r="3" />
    <circle class="dot" cx="209" cy="476" r="3" />

    <line class="soft" x1="366" y1="580" x2="393" y2="580" />
    <circle class="dot" cx="379" cy="580" r="3" />
    <line class="soft" x1="707" y1="580" x2="734" y2="580" />
    <circle class="dot" cx="720" cy="580" r="3" />

    <rect class="mini" x="52" y="694" width="996" height="57" />
    <rect class="c6" x="72" y="707" width="164" height="17" />
    <rect class="c3" x="260" y="708" width="102" height="11" />
    <line class="fillline" x1="370" y1="718" x2="555" y2="718" />
    <rect class="c3" x="578" y="708" width="122" height="11" />
    <line class="fillline" x1="709" y1="718" x2="905" y2="718" />
    <rect class="c3" x="260" y="729" width="108" height="11" />
    <line class="fillline" x1="375" y1="739" x2="555" y2="739" />
    <rect class="c3" x="578" y="729" width="112" height="11" />
    <line class="fillline" x1="698" y1="739" x2="905" y2="739" />

    <line class="line" x1="52" y1="770" x2="1048" y2="770" />
    <text class="num" x="66" y="806">1</text>
    <rect class="c5" x="96" y="784" width="118" height="13" />
    <rect class="c1" x="96" y="804" width="206" height="9" />

    <text class="num" x="388" y="806">2</text>
    <rect class="c5" x="418" y="784" width="144" height="13" />
    <rect class="c1" x="418" y="804" width="270" height="9" />

    <text class="num" x="750" y="806">3</text>
    <rect class="c5" x="780" y="784" width="74" height="13" />
    <rect class="c1" x="780" y="804" width="222" height="9" />

    <rect class="c2" x="52" y="829" width="534" height="9" />
</svg>